<?xml version="1.0" encoding="UTF-8"?>
<svg width="1622px" height="1622px" viewBox="0 0 1622 1622" version="1.1" xmlns="http://www.w3.org/2000/svg" xmlns:xlink="http://www.w3.org/1999/xlink">
    <title>Slice</title>
    <g id="Page-1" stroke="none" stroke-width="1" fill="none" fill-rule="evenodd">
        <rect id="Rectangle" fill="#FC0000" x="0" y="0" width="1622" height="1622"></rect>
        <g id="BAE" transform="translate(73.370000, 205.180000)" fill="#FFFFFF" fill-rule="nonzero">
            <path d="M0,596.82 L275.79,596.82 C391.5,596.82 468.06,534.18 468.06,428.04 C468.06,354.96 431.52,311.46 374.1,284.49 C426.3,259.26 448.92,217.5 448.92,157.47 C448.92,43.5 361.05,0 245.34,0 L0,0 L0,596.82 Z M188.79,353.22 L212.28,353.22 C249.69,353.22 271.44,368.88 271.44,405.42 C271.44,441.96 249.69,457.62 212.28,457.62 L188.79,457.62 L188.79,353.22 Z M188.79,135.72 L211.41,135.72 C246.21,135.72 260.13,152.25 260.13,181.83 C260.13,212.28 246.21,228.81 211.41,228.81 L188.79,228.81 L188.79,135.72 Z" id="Shape"></path>
            <path d="M464.58,596.82 L662.07,610.74 L692.52,507.21 L856.08,507.21 L885.66,610.74 L1090.11,596.82 L889.14,0 L661.2,0 L464.58,596.82 Z M820.41,358.44 L725.58,358.44 L772.56,170.52 L774.3,170.52 L820.41,358.44 Z" id="Shape"></path>
            <polygon id="Path" points="1451.16 596.82 1489.44 431.52 1296.3 431.52 1296.3 368.01 1413.75 368.01 1413.75 219.24 1296.3 219.24 1296.3 160.08 1476.39 160.08 1438.98 0 1107.51 0 1107.51 596.82"></polygon>
        </g>
        <g id="OPENLUCHT" transform="translate(82.888000, 901.288000)" fill="#FFFFFF" fill-rule="nonzero">
            <path d="M93.696,183.808 C81.0666667,183.808 69.0773333,181.461333 57.728,176.768 C46.3786667,172.074667 36.4373333,165.589333 27.904,157.312 C19.3706667,149.034667 12.5866667,139.306667 7.552,128.128 C2.51733333,116.949333 0,104.874667 0,91.904 C0,79.2746667 2.47466667,67.3706667 7.424,56.192 C12.3733333,45.0133333 19.072,35.2853333 27.52,27.008 C35.968,18.7306667 45.8666667,12.16 57.216,7.296 C68.5653333,2.432 80.7253333,0 93.696,0 C106.325333,0 118.314667,2.34666667 129.664,7.04 C141.013333,11.7333333 150.954667,18.2186667 159.488,26.496 C168.021333,34.7733333 174.805333,44.5013333 179.84,55.68 C184.874667,66.8586667 187.392,78.9333333 187.392,91.904 C187.392,104.533333 184.917333,116.437333 179.968,127.616 C175.018667,138.794667 168.32,148.565333 159.872,156.928 C151.424,165.290667 141.525333,171.861333 130.176,176.64 C118.826667,181.418667 106.666667,183.808 93.696,183.808 Z M93.696,143.872 C100.522667,143.872 107.008,142.421333 113.152,139.52 C119.296,136.618667 124.629333,132.778667 129.152,128 C133.674667,123.221333 137.258667,117.674667 139.904,111.36 C142.549333,105.045333 143.872,98.56 143.872,91.904 C143.872,85.248 142.549333,78.8053333 139.904,72.576 C137.258667,66.3466667 133.674667,60.8 129.152,55.936 C124.629333,51.072 119.296,47.1893333 113.152,44.288 C107.008,41.3866667 100.437333,39.936 93.44,39.936 C86.6133333,39.936 80.1706667,41.3866667 74.112,44.288 C68.0533333,47.1893333 62.7626667,51.0293333 58.24,55.808 C53.7173333,60.5866667 50.1333333,66.0906667 47.488,72.32 C44.8426667,78.5493333 43.52,85.0773333 43.52,91.904 C43.52,98.56 44.8426667,105.045333 47.488,111.36 C50.1333333,117.674667 53.7173333,123.221333 58.24,128 C62.7626667,132.778667 68.0533333,136.618667 74.112,139.52 C80.1706667,142.421333 86.6986667,143.872 93.696,143.872 Z" id="Shape"></path>
            <path d="M272.852,4.096 C296.404,4.096 313.982667,8.53333333 325.588,17.408 C337.193333,26.2826667 342.996,40.6186667 342.996,60.416 C342.996,69.12 341.289333,76.8853333 337.876,83.712 C334.462667,90.5386667 329.812,96.384 323.924,101.248 C318.036,106.112 311.124,109.824 303.188,112.384 C295.252,114.944 286.846667,116.224 277.972,116.224 L262.1,116.224 L262.1,177.664 L218.58,181.76 L218.58,4.096 L272.852,4.096 Z M262.1,79.104 L274.9,79.104 C282.58,79.104 288.596,77.4826667 292.948,74.24 C297.3,70.9973333 299.476,66.304 299.476,60.16 C299.476,54.016 297.3,49.3226667 292.948,46.08 C288.596,42.8373333 282.58,41.216 274.9,41.216 L262.1,41.216 L262.1,79.104 Z" id="Shape"></path>
            <polygon id="Path" points="473.512 4.096 481.192 41.216 417.704 41.216 417.704 71.68 463.016 71.68 463.016 108.8 417.704 108.8 417.704 142.592 486.568 142.592 475.816 179.712 374.184 179.712 374.184 4.096"></polygon>
            <polygon id="Path" points="513.916 0 514.428 0 629.372 98.304 629.372 4.096 672.892 0 672.892 183.808 672.38 183.808 557.436 83.456 557.436 177.664 513.916 181.76"></polygon>
            <polygon id="Path" points="755.536 139.776 813.136 139.776 801.616 179.712 712.016 179.712 712.016 4.096 755.536 0"></polygon>
            <path d="M880.676,110.592 C880.676,121.344 882.852,129.578667 887.204,135.296 C891.556,141.013333 898.510667,143.872 908.068,143.872 C912.676,143.872 916.857333,143.317333 920.612,142.208 C924.366667,141.098667 927.652,139.050667 930.468,136.064 C933.284,133.077333 935.46,128.938667 936.996,123.648 C938.532,118.357333 939.3,111.530667 939.3,103.168 L939.3,4.096 L982.82,0 L982.82,119.552 C982.82,129.792 980.857333,138.922667 976.932,146.944 C973.006667,154.965333 967.588,161.706667 960.676,167.168 C953.764,172.629333 945.7,176.768 936.484,179.584 C927.268,182.4 917.369333,183.808 906.788,183.808 C884.089333,183.808 866.809333,178.389333 854.948,167.552 C843.086667,156.714667 837.156,141.738667 837.156,122.624 L837.156,4.096 L880.676,0 L880.676,110.592 Z" id="Path"></path>
            <path d="M1139.96,52.48 C1135.18133,49.0666667 1130.14667,46.1226667 1124.856,43.648 C1119.56533,41.1733333 1113.93333,39.936 1107.96,39.936 C1100.62133,39.936 1093.83733,41.1733333 1087.608,43.648 C1081.37867,46.1226667 1076.04533,49.6213333 1071.608,54.144 C1067.17067,58.6666667 1063.672,64.0853333 1061.112,70.4 C1058.552,76.7146667 1057.272,83.712 1057.272,91.392 C1057.272,99.2426667 1058.50933,106.368 1060.984,112.768 C1063.45867,119.168 1066.91467,124.672 1071.352,129.28 C1075.78933,133.888 1081.12267,137.472 1087.352,140.032 C1093.58133,142.592 1100.45067,143.872 1107.96,143.872 C1113.93333,143.872 1119.69333,142.549333 1125.24,139.904 C1130.78667,137.258667 1136.03467,134.229333 1140.984,130.816 L1135.608,177.408 C1133.90133,178.432 1131.68267,179.328 1128.952,180.096 C1126.22133,180.864 1123.36267,181.504 1120.376,182.016 C1117.38933,182.528 1114.488,182.954667 1111.672,183.296 C1108.856,183.637333 1106.59467,183.808 1104.888,183.808 C1091.576,183.808 1079.33067,181.589333 1068.152,177.152 C1056.97333,172.714667 1047.33067,166.485333 1039.224,158.464 C1031.11733,150.442667 1024.84533,140.842667 1020.408,129.664 C1015.97067,118.485333 1013.752,106.069333 1013.752,92.416 C1013.752,79.4453333 1015.97067,67.328 1020.408,56.064 C1024.84533,44.8 1031.07467,34.9866667 1039.096,26.624 C1047.11733,18.2613333 1056.71733,11.7333333 1067.896,7.04 C1079.07467,2.34666667 1091.32,0 1104.632,0 C1109.752,0 1114.70133,0.426666667 1119.48,1.28 C1124.25867,2.13333333 1128.86667,3.584 1133.304,5.632 L1139.96,52.48 Z" id="Path"></path>
            <polygon id="Path" points="1219.788 68.096 1276.108 68.096 1276.108 4.096 1319.628 0 1319.628 177.664 1276.108 181.76 1276.108 108.032 1219.788 108.032 1219.788 177.664 1176.268 181.76 1176.268 4.096 1219.788 0"></polygon>
            <polygon id="Path" points="1473.952 4.096 1473.952 44.032 1431.712 44.032 1431.712 177.664 1388.192 181.76 1388.192 44.032 1343.136 44.032 1354.144 4.096"></polygon>
        </g>
        <g id="CANTUS" transform="translate(79.223000, 1153.498000)" fill="#FFFFFF" fill-rule="nonzero">
            <path d="M197.693,82.205 C190.207667,76.8583333 182.321333,72.2468333 174.034,68.3705 C165.746667,64.4941667 156.924667,62.556 147.568,62.556 C136.072667,62.556 125.446167,64.4941667 115.6885,68.3705 C105.930833,72.2468333 97.5766667,77.7271667 90.626,84.8115 C83.6753333,91.8958333 78.195,100.383667 74.185,110.275 C70.175,120.166333 68.17,131.127 68.17,143.157 C68.17,155.454333 70.1081667,166.6155 73.9845,176.6405 C77.8608333,186.6655 83.2743333,195.287 90.225,202.505 C97.1756667,209.723 105.529833,215.337 115.2875,219.347 C125.045167,223.357 135.805333,225.362 147.568,225.362 C156.924667,225.362 165.947167,223.290167 174.6355,219.1465 C183.323833,215.002833 191.544333,210.257667 199.297,204.911 L190.876,277.893 C188.202667,279.497 184.727333,280.9005 180.45,282.1035 C176.172667,283.3065 171.694833,284.309 167.0165,285.111 C162.338167,285.913 157.7935,286.581333 153.3825,287.116 C148.9715,287.650667 145.429333,287.918 142.756,287.918 C121.904,287.918 102.722833,284.442667 85.2125,277.492 C67.7021667,270.541333 52.5978333,260.783667 39.8995,248.219 C27.2011667,235.654333 17.3766667,220.616833 10.426,203.1065 C3.47533333,185.596167 0,166.147667 0,144.761 C0,124.443667 3.47533333,105.463 10.426,87.819 C17.3766667,70.175 27.1343333,54.8033333 39.699,41.704 C52.2636667,28.6046667 67.3011667,18.3791667 84.8115,11.0275 C102.321833,3.67583333 121.503,1.13686838e-13 142.355,1.13686838e-13 C150.375,1.13686838e-13 158.127667,0.668333333 165.613,2.005 C173.098333,3.34166667 180.316333,5.614 187.267,8.822 L197.693,82.205 Z" id="Path"></path>
            <path d="M349.013664,1.13686838e-13 L349.815664,1.13686838e-13 L498.185664,273.883 L428.812664,287.918 L400.742664,228.971 L296.081664,228.971 L268.412664,287.918 L202.247664,273.883 L349.013664,1.13686838e-13 Z M312.522664,178.044 L385.504664,178.044 L349.013664,110.676 L312.522664,178.044 Z" id="Shape"></path>
            <polygon id="Path" points="506.349328 1.13686838e-13 507.151328 1.13686838e-13 687.200328 153.984 687.200328 6.416 755.370328 1.13686838e-13 755.370328 287.918 754.568328 287.918 574.519328 130.726 574.519328 278.294 506.349328 284.71"></polygon>
            <polygon id="Path" points="978.870992 6.416 978.870992 68.972 912.705992 68.972 912.705992 278.294 844.535992 284.71 844.535992 68.972 773.959992 68.972 791.202992 6.416"></polygon>
            <path d="M1069.23966,173.232 C1069.23966,190.074 1072.64816,202.972833 1079.46516,211.9285 C1086.28216,220.884167 1097.17599,225.362 1112.14666,225.362 C1119.36466,225.362 1125.91432,224.493167 1131.79566,222.7555 C1137.67699,221.017833 1142.82316,217.809833 1147.23416,213.1315 C1151.64516,208.453167 1155.05366,201.970333 1157.45966,193.683 C1159.86566,185.395667 1161.06866,174.702333 1161.06866,161.603 L1161.06866,6.416 L1229.23866,1.13686838e-13 L1229.23866,187.267 C1229.23866,203.307 1226.16432,217.609333 1220.01566,230.174 C1213.86699,242.738667 1205.37916,253.298333 1194.55216,261.853 C1183.72516,270.407667 1171.09366,276.8905 1156.65766,281.3015 C1142.22166,285.7125 1126.71632,287.918 1110.14166,287.918 C1074.58632,287.918 1047.51882,279.430167 1028.93916,262.4545 C1010.35949,245.478833 1001.06966,222.020333 1001.06966,192.079 L1001.06966,6.416 L1069.23966,1.13686838e-13 L1069.23966,173.232 Z" id="Path"></path>
            <path d="M1419.05532,78.997 C1410.50065,71.2443333 1402.61432,65.8308333 1395.39632,62.7565 C1388.17832,59.6821667 1381.09399,58.145 1374.14332,58.145 C1364.78665,58.145 1356.76665,60.0163333 1350.08332,63.759 C1343.39999,67.5016667 1340.05832,72.8483333 1340.05832,79.799 C1340.05832,84.0763333 1341.19449,87.7521667 1343.46682,90.8265 C1345.73915,93.9008333 1348.88032,96.5741667 1352.89032,98.8465 C1356.90032,101.118833 1361.57865,103.190667 1366.92532,105.062 C1372.27199,106.933333 1377.88599,108.804667 1383.76732,110.676 C1392.58932,113.616667 1401.74549,116.8915 1411.23582,120.5005 C1420.72615,124.1095 1429.28082,128.988333 1436.89982,135.137 C1444.51882,141.285667 1450.80115,149.238833 1455.74682,158.9965 C1460.69249,168.754167 1463.16532,181.118333 1463.16532,196.089 C1463.16532,211.861667 1460.29149,225.495667 1454.54382,236.991 C1448.79615,248.486333 1441.04349,258.0435 1431.28582,265.6625 C1421.52815,273.2815 1410.30015,278.8955 1397.60182,282.5045 C1384.90349,286.1135 1371.60365,287.918 1357.70232,287.918 C1339.79099,287.918 1322.61482,285.244667 1306.17382,279.898 C1289.73282,274.551333 1275.09632,266.397667 1262.26432,255.437 L1303.16632,203.307 C1309.04765,210.257667 1316.53299,215.671167 1325.62232,219.5475 C1334.71165,223.423833 1343.93465,225.362 1353.29132,225.362 C1363.44999,225.362 1372.27199,223.223333 1379.75732,218.946 C1387.24265,214.668667 1390.98532,208.653667 1390.98532,200.901 C1390.98532,195.821667 1389.38132,191.611167 1386.17332,188.2695 C1382.96532,184.927833 1378.75482,181.987167 1373.54182,179.4475 C1368.32882,176.907833 1362.24699,174.568667 1355.29632,172.43 C1348.34565,170.291333 1341.26132,168.019 1334.04332,165.613 C1326.02332,162.939667 1318.07015,159.598 1310.18382,155.588 C1302.29749,151.578 1295.21315,146.498667 1288.93082,140.35 C1282.64849,134.201333 1277.56915,126.649167 1273.69282,117.6935 C1269.81649,108.737833 1267.87832,97.844 1267.87832,85.012 C1267.87832,72.18 1270.55165,60.551 1275.89832,50.125 C1281.24499,39.699 1288.46299,30.8101667 1297.55232,23.4585 C1306.64165,16.1068333 1317.26815,10.3591667 1329.43182,6.2155 C1341.59549,2.07183333 1354.49432,1.13686838e-13 1368.12832,1.13686838e-13 C1384.16832,1.13686838e-13 1399.80732,2.74016667 1415.04532,8.2205 C1430.28332,13.7008333 1444.05099,21.5203333 1456.34832,31.679 L1419.05532,78.997 Z" id="Path"></path>
        </g>
    </g>
</svg>